<svg xmlns="http://www.w3.org/2000/svg" viewBox="0 0 92.95 92.95"><defs><style>.cls-1{fill:none;stroke:#333;stroke-linecap:round;stroke-linejoin:round;}</style></defs><title>icon-career-3</title><g id="Layer_2" data-name="Layer 2"><g id="Layer_5" data-name="Layer 5"><line class="cls-1" x1="92.45" y1="92.45" x2="0.5" y2="92.45"/><path class="cls-1" d="M46.46,9.4"/><polyline class="cls-1" points="0.5 92.45 51.39 0.5 63 15.02 46.27 9.05"/><polyline class="cls-1" points="46.48 9.05 29.75 15.02 41.54 0.5 92.45 92.45"/><path class="cls-1" d="M46.48,39.06A53.27,53.27,0,0,1,2,91.4"/><path class="cls-1" d="M46.27,38.78"/><line class="cls-1" x1="46.48" y1="10.88" x2="46.48" y2="92.45"/><line class="cls-1" x1="88.35" y1="85.04" x2="46.48" y2="85.04"/><line class="cls-1" x1="46.48" y1="85.04" x2="51.69" y2="92.45"/><line class="cls-1" x1="56.89" y1="85.04" x2="51.69" y2="92.45"/><line class="cls-1" x1="56.89" y1="85.04" x2="62.1" y2="92.45"/><line class="cls-1" x1="67.31" y1="85.04" x2="62.1" y2="92.45"/><line class="cls-1" x1="67.31" y1="85.04" x2="72.52" y2="92.45"/><line class="cls-1" x1="77.73" y1="85.04" x2="72.52" y2="92.45"/><line class="cls-1" x1="77.73" y1="85.04" x2="82.94" y2="92.45"/><line class="cls-1" x1="88.14" y1="85.04" x2="82.94" y2="92.45"/><path class="cls-1" d="M90.7,92.45"/><line class="cls-1" x1="46.48" y1="52.12" x2="69.91" y2="52.12"/><line class="cls-1" x1="46.48" y1="46.76" x2="67.15" y2="46.76"/><polygon class="cls-1" points="62.25 61.15 64.1 66.82 70.07 66.82 65.24 70.33 67.08 76.01 62.25 72.5 57.42 76.01 59.27 70.33 54.44 66.82 60.41 66.82 62.25 61.15"/></g></g></svg>