<svg xmlns="http://www.w3.org/2000/svg" viewBox="0 0 104.27 98.71"><defs><style>.cls-1,.cls-2{fill:none;stroke:#333;stroke-linejoin:round;}.cls-2{stroke-linecap:round;}</style></defs><title>icon-career-1</title><g id="Layer_2" data-name="Layer 2"><g id="Layer_5" data-name="Layer 5"><path class="cls-1" d="M66.42,34.61A29.15,29.15,0,0,0,44.5,26.1a22.45,22.45,0,1,1-28,28A29.24,29.24,0,1,0,66.42,34.61Z"/><path class="cls-1" d="M34.17,46.89a6.93,6.93,0,0,1,6.94,6.94A6.93,6.93,0,0,1,48,46.89,6.94,6.94,0,0,1,41.11,40,6.94,6.94,0,0,1,34.17,46.89Z"/><path class="cls-1" d="M3.66,85.72a6.94,6.94,0,0,1,6.94,6.94,6.94,6.94,0,0,1,6.94-6.94,6.94,6.94,0,0,1-6.94-6.94A6.94,6.94,0,0,1,3.66,85.72Z"/><path class="cls-1" d="M67.46,91.27a6.93,6.93,0,0,1,6.94,6.94,6.93,6.93,0,0,1,6.94-6.94,6.94,6.94,0,0,1-6.94-6.94A6.94,6.94,0,0,1,67.46,91.27Z"/><path class="cls-1" d="M81.55,40a5.77,5.77,0,0,1,5.77,5.77A5.77,5.77,0,0,1,93.09,40a5.77,5.77,0,0,1-5.77-5.77A5.77,5.77,0,0,1,81.55,40Z"/><path class="cls-1" d="M61.91,19.14a6.93,6.93,0,0,1,6.94,6.94,6.93,6.93,0,0,1,6.94-6.94,6.94,6.94,0,0,1-6.94-6.94A6.94,6.94,0,0,1,61.91,19.14Z"/><path class="cls-1" d="M.5,30.24a11.1,11.1,0,0,1,11.1,11.1,11.1,11.1,0,0,1,11.1-11.1,11.1,11.1,0,0,1-11.1-11.1A11.1,11.1,0,0,1,.5,30.24Z"/><line class="cls-2" x1="74.4" y1="13.8" x2="87.7" y2="0.5"/><line class="cls-2" x1="17.97" y1="23.92" x2="31.54" y2="10.35"/><line class="cls-2" x1="79" y1="86.63" x2="103.77" y2="61.85"/></g></g></svg>