<svg xmlns="http://www.w3.org/2000/svg" viewBox="0 0 160 60"><defs><style>.cls-1{fill:#fff;}</style></defs><g id="Layer_2" data-name="Layer 2"><g id="Layer_1-2" data-name="Layer 1"><path class="cls-1" d="M32.83.85l-1-.85L31,1l1,.85ZM38.07,21l-.84-1.08L35.07,21.6l.85,1.08Zm2.17-2.11-.56-.72-1.44,1.12.56.72ZM18.63,44.25l.74.63,1.88-2.21L20.52,42ZM0,40.7l1,.91,1.81-2.07-1-.9Zm12.78-4.45,1.4,1.43,1.44-1.41-1.41-1.43ZM52,33.69l.93-.93-.68-.84-1,.84Zm4.63,6.5A4.33,4.33,0,0,0,51.1,37.6a2.64,2.64,0,0,0-.29.15l-1-1.72,1.65-1.9-.76-.91-6.09,4.9-3,1.65,7-7L47.55,31.4,37.72,39l-1.34-1.47-3.86,1.14,6.56-4.62-.85-1.2L39.45,32l-.87-1.24-1.22.86-.42-.6-7.67,5.39L37,27.35l-2-1.73,1.07-.85L34,22.12,26.82,27.8l8-9.59L32.6,16.34l.5-.42-1.93-2.36L16.58,25.44,31.7,8.13,29.22,6l2.53-2.91L30.3,1.79.33,36.12l3.93,3.42.42-.48h0L23.87,23.44l-9.12,10.9,3.88,3.24.84-1,.67.84,10.29-8.17-8.57,10,1.15,1-.94,1.09,1.1.94.94-1.09.63.53.82-1,1.33,1.88,6.68-2.07-2.69,2.63.63.65L26.14,48l1.41,2.55a2,2,0,0,0-.28.16A4.5,4.5,0,0,0,32.52,58l.14-.11c3.81,2.92,9.15,2.63,14.08-.09s8-7.09,7.57-11.87l.18,0A4.33,4.33,0,0,0,56.65,40.19ZM34.62,53a1.77,1.77,0,1,1,.69-2.4A1.78,1.78,0,0,1,34.62,53ZM45.84,56.2c-2.64,1.46-5.44,1.45-6.67-.77L38,53.31,47.56,48l1.17,2.12C50,52.37,48.48,54.74,45.84,56.2ZM49.05,45a1.77,1.77,0,1,1,.69-2.4A1.76,1.76,0,0,1,49.05,45Zm2.46-15.23-.73-1-2.32,2,1,1.13Z"/><rect class="cls-1" x="81.72" y="54.05" width="2.72" height="2.72" rx="0.24"/><rect class="cls-1" x="68.26" y="47.62" width="2.72" height="2.72" rx="0.24"/><path class="cls-1" d="M71,36.76a.38.38,0,0,0-.33-.23H68.39a.38.38,0,0,0-.33.23L60,56.55a.15.15,0,0,0,.15.22h2.68a.39.39,0,0,0,.33-.22l6.22-15.27c0-.13.13-.13.18,0l6.22,15.27a.39.39,0,0,0,.33.22h4.1a.24.24,0,0,0,.24-.24V54.29a.24.24,0,0,0-.24-.24h-2a.39.39,0,0,1-.33-.22Z"/><path class="cls-1" d="M100.27,45.65a.24.24,0,0,0,.24.24h4.95a.24.24,0,0,1,.24.24v10.4a.24.24,0,0,0,.24.24h2.24a.24.24,0,0,0,.24-.24V46.13a.24.24,0,0,1,.24-.24h5a.24.24,0,0,0,.24-.24V43.41a.24.24,0,0,0-.24-.24H100.5a.24.24,0,0,0-.24.24Z"/><path class="cls-1" d="M157.58,43.17a.55.55,0,0,0-.44.26L152,52.88a.15.15,0,0,1-.29,0l-5.13-9.45a.54.54,0,0,0-.43-.26H144a.3.3,0,0,0-.29.3v13a.29.29,0,0,0,.29.3h2.13a.29.29,0,0,0,.29-.3V49.81c0-.16.08-.18.15,0l3.79,6.74a.55.55,0,0,0,.44.26h2.13a.57.57,0,0,0,.44-.26l3.78-6.74c.09-.14.15-.12.15,0v6.66a.29.29,0,0,0,.3.3h2.12a.29.29,0,0,0,.3-.3v-13a.3.3,0,0,0-.3-.3Z"/><path class="cls-1" d="M123.78,43.17h-4.53q-4.53,0-4.53,4.53v4.53q0,4.53,4.53,4.53h4.53c3,0,4.53-1.52,4.53-4.53V47.7Q128.31,43.17,123.78,43.17Zm1.82,8.61A2,2,0,0,1,123.33,54H119.7a2,2,0,0,1-2.26-2.26V48.15c0-1.5.6-2.26,1.81-2.26h4.08a2,2,0,0,1,2.27,2.26Z"/><path class="cls-1" d="M90.79,45.89h8.32a.29.29,0,0,0,.29-.29V43.47a.3.3,0,0,0-.29-.3H90.34q-4.53,0-4.53,4.08t4.53,4.08h4.08c1.51,0,2.26.46,2.26,1.36s-.75,1.36-2.26,1.36H86.1a.3.3,0,0,0-.29.3v2.12a.29.29,0,0,0,.29.3h8.77q4.53,0,4.53-4.08t-4.53-4.08H90.79c-1.51,0-2.26-.45-2.26-1.36S89.28,45.89,90.79,45.89Z"/><path class="cls-1" d="M142.87,56.51l-2.29-4.43-.49-1q2.72-.72,2.71-3.87,0-4.08-4.53-4.08h-8.76a.3.3,0,0,0-.3.3v13a.29.29,0,0,0,.3.3h2.13a.29.29,0,0,0,.29-.3V51.62a.29.29,0,0,1,.29-.29H137a.51.51,0,0,1,.43.26L140,56.51a.51.51,0,0,0,.43.26h2.28C142.87,56.77,142.94,56.66,142.87,56.51Zm-10.65-7.9a.29.29,0,0,1-.29-.29V46.18a.29.29,0,0,1,.29-.29h5.6c1.51,0,2.27.45,2.27,1.36s-.76,1.36-2.27,1.36Z"/></g></g></svg>