<svg xmlns="http://www.w3.org/2000/svg" viewBox="0 0 99.98 20.24"><defs><style>.cls-1{fill:#fff;}</style></defs><g id="Layer_2" data-name="Layer 2"><g id="Layer_1-2" data-name="Layer 1"><rect class="cls-1" x="21.7" y="17.52" width="2.72" height="2.72" rx="0.24"/><rect class="cls-1" x="8.24" y="11.09" width="2.72" height="2.72" rx="0.24"/><path class="cls-1" d="M10.94.22A.39.39,0,0,0,10.61,0H8.37A.39.39,0,0,0,8,.22L0,20c0,.13,0,.23.15.23H2.85A.37.37,0,0,0,3.18,20L9.4,4.74c0-.12.13-.12.18,0L15.8,20a.38.38,0,0,0,.33.23h4.1a.24.24,0,0,0,.24-.24V17.76a.24.24,0,0,0-.24-.24h-2a.39.39,0,0,1-.33-.22Z"/><path class="cls-1" d="M40.25,9.12a.24.24,0,0,0,.24.24h4.95a.24.24,0,0,1,.24.24V20a.24.24,0,0,0,.24.24h2.24A.24.24,0,0,0,48.4,20V9.6a.24.24,0,0,1,.24-.24h5a.25.25,0,0,0,.25-.24V6.88a.25.25,0,0,0-.25-.24H40.48a.24.24,0,0,0-.24.24Z"/><path class="cls-1" d="M97.56,6.64a.53.53,0,0,0-.44.26L92,16.34c-.08.14-.21.14-.28,0L86.53,6.9a.51.51,0,0,0-.43-.26H84a.29.29,0,0,0-.29.3v13a.3.3,0,0,0,.29.3h2.13a.29.29,0,0,0,.29-.3V13.28c0-.16.08-.18.15,0L90.32,20a.57.57,0,0,0,.44.26h2.13a.57.57,0,0,0,.44-.26l3.78-6.74c.09-.14.15-.12.15,0v6.66a.3.3,0,0,0,.3.3h2.12a.3.3,0,0,0,.3-.3v-13a.29.29,0,0,0-.3-.3Z"/><path class="cls-1" d="M63.76,6.64H59.23q-4.53,0-4.53,4.53V15.7q0,4.53,4.53,4.53h4.53q4.53,0,4.53-4.53V11.17Q68.29,6.64,63.76,6.64Zm1.82,8.61a2,2,0,0,1-2.27,2.26H59.68a2,2,0,0,1-2.26-2.26V11.62c0-1.51.6-2.26,1.81-2.26h4.08a2,2,0,0,1,2.27,2.26Z"/><path class="cls-1" d="M30.77,9.36h8.32a.3.3,0,0,0,.29-.3V6.94a.29.29,0,0,0-.29-.3H30.32q-4.53,0-4.53,4.08c0,2.72,1.51,4.07,4.53,4.07H34.4c1.51,0,2.27.46,2.27,1.37s-.76,1.36-2.27,1.36H26.08a.29.29,0,0,0-.29.3v2.12a.3.3,0,0,0,.29.3h8.77q4.53,0,4.53-4.08t-4.53-4.08H30.77c-1.51,0-2.26-.45-2.26-1.36S29.26,9.36,30.77,9.36Z"/><path class="cls-1" d="M82.85,20l-2.28-4.43-.5-1q2.72-.7,2.71-3.86,0-4.08-4.53-4.08H69.49a.29.29,0,0,0-.3.3v13a.3.3,0,0,0,.3.3h2.13a.3.3,0,0,0,.29-.3V15.09a.3.3,0,0,1,.29-.3H77a.51.51,0,0,1,.43.27L80,20a.54.54,0,0,0,.43.26h2.28C82.85,20.24,82.93,20.12,82.85,20ZM72.2,12.08a.29.29,0,0,1-.29-.29V9.65a.29.29,0,0,1,.29-.29h5.6c1.51,0,2.27.45,2.27,1.36s-.76,1.36-2.27,1.36Z"/></g></g></svg>